<svg width="256" height="256" viewBox="0 0 256 256" fill="none" xmlns="http://www.w3.org/2000/svg">
<path fill-rule="evenodd" clip-rule="evenodd" d="M145.137 204.111C143.055 197.641 139.323 187.945 133.6 179.6C127.893 171.277 118.087 162.107 109.98 154.525L109.98 154.525L109.979 154.525L109.979 154.524C104.449 149.352 99.709 144.92 97.6003 142C92.4003 134.8 91.6001 127.6 94.0001 119.6C94.8001 127.6 98.8001 133.6 107.2 136.8C110.698 138.132 115.773 138.975 121.235 139.882C128.891 141.154 137.306 142.551 143.2 145.6C147.383 147.763 150.614 150.853 153.491 153.605C158.595 158.485 162.586 162.302 168.8 158C171.768 155.946 175.255 154.564 178.075 153.446C180.197 152.606 181.94 151.915 182.8 151.2C185.144 149.252 184.313 143.721 182.4 137.6C181.444 134.542 179.667 131.483 176.848 126.635L176.848 126.635C174.079 121.872 170.306 115.381 165.322 105.465V122.8H113.2V73.2H146.11C144.876 71.6189 143.747 70.2411 142.719 68.9873L142.719 68.9869C141.716 67.7647 140.811 66.6602 140 65.6001C140 65.6001 143.6 61.6001 150.4 58.8001C141.2 56.0001 133.2 57.2001 133.2 57.2001L136.99 50.5125C134.04 50.174 131.04 50 128 50C84.9218 50 50 84.9218 50 128C50 171.078 84.9218 206 128 206C133.887 206 139.623 205.348 145.137 204.111ZM155.6 81.2H122.8V114H155.6V81.2Z" fill="black"/>
</svg>
