<svg width="190" height="190" viewBox="0 0 190 190" fill="none" xmlns="http://www.w3.org/2000/svg">
<g clip-path="url(#clip0_518_162)">
<path d="M95.0064 170.013C136.431 170.013 170.013 136.431 170.013 95.0064C170.013 53.5815 136.431 20 95.0064 20C53.5815 20 20 53.5815 20 95.0064C20 136.431 53.5815 170.013 95.0064 170.013Z" fill="#0007B9"/>
<path d="M120.374 69.8457L92.6005 57.2588L73.7073 61.6475V62.9216L97.5425 75.5728L120.374 69.8457Z" fill="url(#paint0_linear_518_162)"/>
<path d="M128.751 110.231L94.4268 94.4399L66.5632 101.956V103.796L95.8811 119.935L128.751 110.257V110.231Z" fill="url(#paint1_linear_518_162)"/>
<path d="M73.7073 62.9217L92.6005 58.5201L113.707 53.6167V40.8496L73.7073 49.6527V62.9217Z" fill="white"/>
<path d="M120.373 69.8457L97.5414 75.5729L66.5632 83.3463V103.771L94.4268 96.255L120.373 89.2537V69.8457Z" fill="white"/>
<path d="M33.7197 138.224C40.3735 147.645 49.138 155.483 59.3439 161.004L128.752 138.481V110.257L95.869 119.936L33.7197 138.224Z" fill="white"/>
</g>
<defs>
<linearGradient id="paint0_linear_518_162" x1="73.7073" y1="66.4222" x2="120.374" y2="66.4222" gradientUnits="userSpaceOnUse">
<stop offset="0.17" stop-color="white"/>
<stop offset="0.84" stop-color="white" stop-opacity="0"/>
</linearGradient>
<linearGradient id="paint1_linear_518_162" x1="66.5632" y1="107.181" x2="128.751" y2="107.181" gradientUnits="userSpaceOnUse">
<stop offset="0.17" stop-color="white"/>
<stop offset="0.84" stop-color="white" stop-opacity="0"/>
</linearGradient>
<clipPath id="clip0_518_162">
<rect width="150" height="150" fill="white" transform="translate(20 20)"/>
</clipPath>
</defs>
</svg>